<svg xmlns="http://www.w3.org/2000/svg" xmlns:svg="http://www.w3.org/2000/svg" id="svg3438" width="48" height="48" fill="#FFF" version="1.1" viewBox="0 0 24 24"><metadata id="metadata3448"/><path id="path3440" fill="none" d="M0 0h24v24H0z"/><path id="path3442" fill="#fff" d="M 12.009766,9 10,6.5 14,6.5 12.009766,9 Z"/><path id="rect3450-5" fill="#fff" d="M 4.5,10 7,12.009766 4.5,14 l 0,-4 z"/><path id="rect3450-5-7" fill="#fff" d="m 19.5,10 0,4 L 17,12.009766 19.5,10 Z"/><path id="rect3450-8" fill="#fff" d="M 10,17.5 12.009766,15 14,17.5 l -4,0 z"/><path id="path3442-8-5" fill="#fff" d="M 6 6 C 3.8 6 2 7.8 2 10 L 2 38 C 2 40.2 3.8 42 6 42 L 42 42 C 44.2 42 46 40.2 46 38 L 46 10 C 46 7.8 44.2 6 42 6 L 6 6 z M 6 9.9804688 L 42 9.9804688 L 42 38.019531 L 6 38.019531 L 6 9.9804688 z" transform="scale(0.5,0.5)"/></svg>