<?xml version="1.0" encoding="UTF-8" standalone="no"?>
<svg
   xmlns:dc="http://purl.org/dc/elements/1.1/"
   xmlns:cc="http://creativecommons.org/ns#"
   xmlns:rdf="http://www.w3.org/1999/02/22-rdf-syntax-ns#"
   xmlns:svg="http://www.w3.org/2000/svg"
   xmlns="http://www.w3.org/2000/svg"
   version="1.1"
   id="svg3438"
   width="48"
   viewBox="0 0 24 24"
   height="48"
   fill="#FFFFFF">
  <metadata
     id="metadata3448">
    <rdf:RDF>
      <cc:Work
         rdf:about="">
        <dc:format>image/svg+xml</dc:format>
        <dc:type
           rdf:resource="http://purl.org/dc/dcmitype/StillImage" />
        <dc:title></dc:title>
      </cc:Work>
    </rdf:RDF>
  </metadata>
  <defs
     id="defs3446" />
  <path
     id="path3440"
     fill="none"
     d="M0 0h24v24H0z" />
  <path
     id="path3442"
     d="M 12.009766,9 10,6.5 14,6.5 12.009766,9 Z"
     style="fill:#ffffff" />
  <path
     id="rect3450-5"
     d="M 4.5,10 7,12.009766 4.5,14 l 0,-4 z"
     style="fill:#ffffff" />
  <path
     id="rect3450-5-7"
     d="m 19.5,10 0,4 L 17,12.009766 19.5,10 Z"
     style="fill:#ffffff" />
  <path
     id="rect3450-8"
     d="M 10,17.5 12.009766,15 14,17.5 l -4,0 z"
     style="fill:#ffffff" />
  <path
     transform="scale(0.5,0.5)"
     id="path3442-8-5"
     d="M 6 6 C 3.8 6 2 7.8 2 10 L 2 38 C 2 40.2 3.8 42 6 42 L 42 42 C 44.2 42 46 40.2 46 38 L 46 10 C 46 7.8 44.2 6 42 6 L 6 6 z M 6 9.9804688 L 42 9.9804688 L 42 38.019531 L 6 38.019531 L 6 9.9804688 z "
     style="fill:#ffffff" />
</svg>
